<?xml version="1.0" encoding="UTF-8"?>
<svg version="1.1" xmlns="http://www.w3.org/2000/svg" width="468" height="108">
<path d="M0 0 C154.44 0 308.88 0 468 0 C468 35.64 468 71.28 468 108 C313.56 108 159.12 108 0 108 C0 72.36 0 36.72 0 0 Z " fill="#FBFCFE" transform="translate(0,0)"/>
<path d="M0 0 C35.97 0 71.94 0 109 0 C106.18597209 2.11052093 104.28865171 3.46574967 101.2265625 4.83984375 C100.49501953 5.1745166 99.76347656 5.50918945 99.00976562 5.85400391 C98.22279297 6.21155762 97.43582031 6.56911133 96.625 6.9375 C63.52896539 20.94917835 63.52896539 20.94917835 40 46 C37.97163336 53.19148174 38.59098116 60.3632931 42 67 C47.39107616 73.57483098 54.82757564 75.91821098 63 77 C65.63589958 77.06656312 68.24148596 77.09567411 70.875 77.0625 C71.90753906 77.05573242 71.90753906 77.05573242 72.9609375 77.04882812 C74.64066335 77.03716336 76.32034375 77.01923271 78 77 C75.53429215 79.46570785 73.13636873 80.44535207 69.9609375 81.8984375 C69.36125153 82.17466949 68.76156555 82.45090149 68.14370728 82.73550415 C66.22269431 83.61952087 64.29900576 84.49751853 62.375 85.375 C60.47738532 86.2443577 58.58036862 87.11498218 56.68414307 87.98736572 C54.86796689 88.82123176 53.04875252 89.64847029 51.22949219 90.47558594 C48.56565406 91.73299486 46.03594301 93.088219 43.4765625 94.5390625 C40 96 40 96 36.85546875 95.44140625 C35.44201172 94.72791016 35.44201172 94.72791016 34 94 C33.06800781 93.53464844 32.13601562 93.06929688 31.17578125 92.58984375 C17.20703434 84.52875242 4.63135811 75.0573452 0 59 C-0.51368494 54.36229836 -0.46863665 49.77853733 -0.390625 45.1171875 C-0.38659668 43.96742432 -0.38256836 42.81766113 -0.37841797 41.63305664 C-0.35765182 37.38020636 -0.30180768 33.12758541 -0.25 28.875 C-0.1675 19.34625 -0.085 9.8175 0 0 Z " fill="#029E02" transform="translate(0,0)"/>
<path d="M0 0 C0.76860352 0.40694092 1.53720703 0.81388184 2.32910156 1.2331543 C4.32259627 2.46554442 5.78453316 3.76340972 7.359375 5.48828125 C-56.51518633 52.55671572 -56.51518633 52.55671572 -86.828125 52.80078125 C-88.60026367 52.84428711 -88.60026367 52.84428711 -90.40820312 52.88867188 C-98.51629919 52.94706813 -106.4639315 52.42015696 -112.63989258 46.60620117 C-115.39282002 43.4431665 -117.00669983 40.5869981 -117.265625 36.36328125 C-115.85702758 27.62997727 -108.96211773 22.71894979 -102.21777344 17.67700195 C-99.58823556 15.81007053 -96.93627208 13.9834152 -94.265625 12.17578125 C-93.30245361 11.52351563 -92.33928223 10.87125 -91.34692383 10.19921875 C-57.72521028 -12.29474746 -36.52872749 -19.36285649 0 0 Z " fill="#0503FF" transform="translate(163.640625,17.51171875)"/>
<path d="M0 0 C2 1 2 1 3.125 3.6875 C5.28082691 12.13695064 5.17767412 21.76543517 1.43359375 29.70703125 C-10.83138641 49.32431559 -37.54178115 59.70958387 -59.05859375 64.7109375 C-87.9504523 70.36636513 -87.9504523 70.36636513 -96 65 C-94.59814453 64.30777344 -94.59814453 64.30777344 -93.16796875 63.6015625 C-88.76836036 61.42136643 -84.38241675 59.2145191 -80 57 C-78.85337891 56.42233887 -78.85337891 56.42233887 -77.68359375 55.83300781 C-54.40605205 44.04653683 -32.02082171 29.98005976 -13 12 C-11.56794448 10.74376625 -10.13066017 9.49346088 -8.6875 8.25 C-5.65806783 5.61384097 -2.79521734 2.88256788 0 0 Z " fill="#0606FF" transform="translate(185,41)"/>
<path d="M0 0 C1.155 -0.02900391 2.31 -0.05800781 3.5 -0.08789062 C10.12655576 -0.13706027 15.88783735 0.0468415 21.25 4.3125 C24.31091974 7.52863879 24.63413524 9.83392674 24.6484375 14.21484375 C24.65423828 15.92124023 24.65423828 15.92124023 24.66015625 17.66210938 C24.64855469 18.84611328 24.63695312 20.03011719 24.625 21.25 C24.63660156 22.43013672 24.64820313 23.61027344 24.66015625 24.82617188 C24.65628906 25.96505859 24.65242188 27.10394531 24.6484375 28.27734375 C24.64505371 29.3149585 24.64166992 30.35257324 24.63818359 31.42163086 C24.19123922 34.75010147 23.22446163 36.61729208 21.25 39.3125 C15.8584698 42.99452062 12.05686095 43.44286866 5.625 43.375 C4.82320313 43.37048828 4.02140625 43.36597656 3.1953125 43.36132812 C1.21350994 43.34953168 -0.76825433 43.33159605 -2.75 43.3125 C-2.75 41.0025 -2.75 38.6925 -2.75 36.3125 C5.665 35.8175 5.665 35.8175 14.25 35.3125 C14.25 34.6525 14.25 33.9925 14.25 33.3125 C12.98724243 33.3439209 12.98724243 33.3439209 11.69897461 33.37597656 C8.54748648 33.44452962 5.39638094 33.49448263 2.24438477 33.53222656 C0.88553287 33.55222628 -0.47323424 33.57943576 -1.83178711 33.61425781 C-15.94935303 33.96680812 -15.94935303 33.96680812 -21.75 29.3125 C-23.62459701 25.56330597 -23.1073379 21.1269659 -23.1875 17 C-23.23326172 16.04931641 -23.27902344 15.09863281 -23.32617188 14.11914062 C-23.43593158 7.29017787 -23.43593158 7.29017787 -21.52392578 4.56494141 C-15.2869837 -0.89459146 -7.79977549 0.06442546 0 0 Z " fill="#0405FF" transform="translate(443.75,24.6875)"/>
<path d="M0 0 C2.54232342 -0.08152344 5.08199202 -0.14073716 7.625 -0.1875 C8.33785156 -0.21263672 9.05070312 -0.23777344 9.78515625 -0.26367188 C15.33325868 -0.34002191 19.18253665 0.77162355 23.6394043 4.29663086 C26.39499971 7.74644051 25.46742551 12.64734183 25.4375 16.875 C25.4674707 18.36580078 25.4674707 18.36580078 25.49804688 19.88671875 C25.49513571 24.23599966 25.43202122 27.19723716 23.34765625 31.0703125 C17.09348597 36.21101153 9.27641182 35.33302417 1.625 35.3125 C0.43132812 35.32861328 -0.76234375 35.34472656 -1.9921875 35.36132812 C-10.23270809 35.36588594 -16.57443142 34.99737251 -23 29.375 C-25.53742468 25.09309584 -26.1127704 21.86388351 -25 17 C-21.90505977 12.72170027 -18.98713291 11.3749607 -14 10 C-11.69643663 9.78030862 -9.3835131 9.64734991 -7.0703125 9.5859375 C-5.13671875 9.52792969 -5.13671875 9.52792969 -3.1640625 9.46875 C-1.81771293 9.43730242 -0.47135868 9.40605489 0.875 9.375 C2.24481514 9.33676959 3.61460755 9.29771499 4.984375 9.2578125 C8.32278263 9.16377285 11.66118814 9.07811943 15 9 C12.16730334 7.58365167 9.52533562 7.6536995 6.375 7.4375 C5.18648438 7.35371094 3.99796875 7.26992188 2.7734375 7.18359375 C1.40058594 7.09271484 1.40058594 7.09271484 0 7 C0 4.69 0 2.38 0 0 Z " fill="#0505FF" transform="translate(338,25)"/>
<path d="M0 0 C28.71 0 57.42 0 87 0 C87 0.33 87 0.66 87 1 C86.44352783 1.08975098 85.88705566 1.17950195 85.3137207 1.27197266 C56.9276385 5.93285069 26.19464588 12.55704215 7 36 C5.05252459 39.23309487 3.48923518 42.53707965 2 46 C1.34 47.32 0.68 48.64 0 50 C0 33.5 0 17 0 0 Z " fill="#FCFDFC" transform="translate(0,0)"/>
<path d="M0 0 C2.06311931 0.00315945 4.12480179 -0.02032553 6.18774414 -0.0456543 C7.49936523 -0.04629883 8.81098633 -0.04694336 10.16235352 -0.04760742 C11.35594482 -0.05058838 12.54953613 -0.05356934 13.77929688 -0.05664062 C17.54170963 0.36079695 19.92706108 1.32974536 23.13500977 3.31567383 C25.55705015 6.94873441 25.36803867 8.63386405 25.33032227 12.95239258 C25.32387695 14.25112305 25.31743164 15.54985352 25.31079102 16.88793945 C25.29408037 18.2596869 25.27715048 19.63143169 25.26000977 21.00317383 C25.2499765 22.38663101 25.24085126 23.7700951 25.23266602 25.15356445 C25.20905944 28.54110835 25.17613013 31.92830455 25.13500977 35.31567383 C22.16500977 35.31567383 19.19500977 35.31567383 16.13500977 35.31567383 C16.13500977 26.73567383 16.13500977 18.15567383 16.13500977 9.31567383 C6.89500977 9.31567383 -2.34499023 9.31567383 -11.86499023 9.31567383 C-11.86499023 17.89567383 -11.86499023 26.47567383 -11.86499023 35.31567383 C-15.16499023 35.31567383 -18.46499023 35.31567383 -21.86499023 35.31567383 C-21.98124959 30.75338842 -22.05226431 26.19148455 -22.11499023 21.62817383 C-22.14850586 20.33459961 -22.18202148 19.04102539 -22.21655273 17.70825195 C-22.22944336 16.46108398 -22.24233398 15.21391602 -22.25561523 13.92895508 C-22.2765625 12.78209229 -22.29750977 11.63522949 -22.3190918 10.45361328 C-21.75835178 6.5787792 -20.66317605 5.02040764 -17.86499023 2.31567383 C-12.36343271 -0.7488435 -6.12451433 -0.01965085 0 0 Z " fill="#0A0BFF" transform="translate(389.864990234375,24.684326171875)"/>
<path d="M0 0 C2.97 0 5.94 0 9 0 C9.33 8.25 9.66 16.5 10 25 C12.95913412 25.98637804 14.91398898 26.1288877 18 26.1328125 C18.969375 26.13410156 19.93875 26.13539062 20.9375 26.13671875 C21.948125 26.13285156 22.95875 26.12898438 24 26.125 C25.5159375 26.13080078 25.5159375 26.13080078 27.0625 26.13671875 C28.031875 26.13542969 29.00125 26.13414063 30 26.1328125 C30.886875 26.13168457 31.77375 26.13055664 32.6875 26.12939453 C35.16001285 26.0926256 35.16001285 26.0926256 38 25 C38.33 16.75 38.66 8.5 39 0 C41.97 0 44.94 0 48 0 C48.0872253 4.39570794 48.14046869 8.79119271 48.1875 13.1875 C48.21263672 14.43337891 48.23777344 15.67925781 48.26367188 16.96289062 C48.27333984 18.16494141 48.28300781 19.36699219 48.29296875 20.60546875 C48.3086792 21.71043701 48.32438965 22.81540527 48.34057617 23.95385742 C47.94975053 27.44943557 47.1831738 29.25398381 45 32 C38.3432439 35.65907974 30.26541743 35.48862867 22.875 35.4375 C21.84246094 35.45748047 20.80992187 35.47746094 19.74609375 35.49804688 C13.56386262 35.49410915 7.9262685 35.08499976 3 31 C0.15112083 27.21133088 -0.3623318 24.51778522 -0.29296875 19.82421875 C-0.28330078 18.66728516 -0.27363281 17.51035156 -0.26367188 16.31835938 C-0.23853516 15.12017578 -0.21339844 13.92199219 -0.1875 12.6875 C-0.17396484 11.46998047 -0.16042969 10.25246094 -0.14648438 8.99804688 C-0.11119261 5.99824655 -0.06188481 2.99935025 0 0 Z " fill="#0303FF" transform="translate(260,25)"/>
<path d="M0 0 C2.97 0 5.94 0 9 0 C9.33 10.89 9.66 21.78 10 33 C14.25992347 35.12996173 16.48206638 35.29873934 21.171875 35.4140625 C22.1955014 35.44311172 22.1955014 35.44311172 23.23980713 35.4727478 C25.40974608 35.53231098 27.57973877 35.57883446 29.75 35.625 C31.22528297 35.66320131 32.70054415 35.7022543 34.17578125 35.7421875 C37.78365418 35.83799235 41.39169083 35.92210916 45 36 C45 38.64 45 41.28 45 44 C40.44681299 44.07468636 35.89399002 44.12885256 31.34033203 44.16479492 C29.79437032 44.1797933 28.24845052 44.20019887 26.70263672 44.22631836 C8.85042413 44.52020566 8.85042413 44.52020566 1.82519531 39.42163086 C-0.79238757 35.94867679 -0.49977748 32.68546256 -0.390625 28.515625 C-0.38496521 27.70003113 -0.37930542 26.88443726 -0.37347412 26.04412842 C-0.35112727 23.44548228 -0.30093622 20.84822758 -0.25 18.25 C-0.22993271 16.48569703 -0.21168234 14.7213724 -0.1953125 12.95703125 C-0.1512683 8.63748672 -0.08225422 4.31897907 0 0 Z " fill="#0404FF" transform="translate(210,16)"/>
<path d="M0 0 C1.16273438 -0.01224609 2.32546875 -0.02449219 3.5234375 -0.03710938 C4.6371875 -0.03904297 5.7509375 -0.04097656 6.8984375 -0.04296875 C7.92372559 -0.04707764 8.94901367 -0.05118652 10.00537109 -0.05541992 C12.625 0.1875 12.625 0.1875 15.625 2.1875 C15.84607787 4.9760289 15.90607535 7.53403181 15.8125 10.3125 C15.79219727 11.44365234 15.79219727 11.44365234 15.77148438 12.59765625 C15.73609985 14.46124127 15.68229167 16.32445978 15.625 18.1875 C11.16668018 18.21641546 6.70838431 18.23426981 2.25 18.25 C0.97898437 18.25837891 -0.29203125 18.26675781 -1.6015625 18.27539062 C-3.41914063 18.28022461 -3.41914063 18.28022461 -5.2734375 18.28515625 C-6.95445557 18.29301147 -6.95445557 18.29301147 -8.66943359 18.30102539 C-11.375 18.1875 -11.375 18.1875 -13.375 17.1875 C-13.40184679 14.54159986 -13.42176357 11.89596904 -13.4375 9.25 C-13.44587891 8.49525391 -13.45425781 7.74050781 -13.46289062 6.96289062 C-13.47152441 5.03755687 -13.42724333 3.11214419 -13.375 1.1875 C-10.79222451 -1.39527549 -3.47541443 0.00191377 0 0 Z " fill="#FCFCFF" transform="translate(443.375,32.8125)"/>
<path d="M0 0 C0.82741699 0.01047363 1.65483398 0.02094727 2.50732422 0.03173828 C3.40322266 0.03818359 4.29912109 0.04462891 5.22216797 0.05126953 C6.62789063 0.07640625 6.62789063 0.07640625 8.06201172 0.10205078 C9.00689453 0.11107422 9.95177734 0.12009766 10.92529297 0.12939453 C13.26263999 0.1530041 15.59985721 0.18887584 17.93701172 0.22705078 C17.93701172 5.17705078 17.93701172 10.12705078 17.93701172 15.22705078 C14.64529102 15.25393416 11.35378818 15.27383289 8.06201172 15.28955078 C7.12486328 15.29792969 6.18771484 15.30630859 5.22216797 15.31494141 C3.87832031 15.31977539 3.87832031 15.31977539 2.50732422 15.32470703 C1.67990723 15.32994385 0.85249023 15.33518066 0 15.34057617 C-2.06298828 15.22705078 -2.06298828 15.22705078 -4.06298828 14.22705078 C-4.11687915 12.26901571 -4.15573045 10.31056169 -4.18798828 8.35205078 C-4.21119141 7.26150391 -4.23439453 6.17095703 -4.25830078 5.04736328 C-4.02642198 1.69903342 -3.48221106 0.38324926 0 0 Z " fill="#F2F2FF" transform="translate(280.06298828125,76.77294921875)"/>
<path d="M0 0 C1.20446777 0.01047363 2.40893555 0.02094727 3.64990234 0.03173828 C5.60283203 0.04140625 5.60283203 0.04140625 7.59521484 0.05126953 C8.9754258 0.06798149 10.35563413 0.08491139 11.73583984 0.10205078 C13.12385436 0.11208072 14.51187574 0.12120655 15.89990234 0.12939453 C19.3037201 0.15303215 22.70719491 0.18598211 26.11083984 0.22705078 C26.30615234 6.28173828 26.30615234 6.28173828 26.11083984 8.22705078 C23.38849382 10.94939681 21.88321111 10.48493135 18.07958984 10.49267578 C16.87689453 10.49525391 15.67419922 10.49783203 14.43505859 10.50048828 C13.17306641 10.49275391 11.91107422 10.48501953 10.61083984 10.47705078 C9.34884766 10.48478516 8.08685547 10.49251953 6.78662109 10.50048828 C5.58392578 10.49791016 4.38123047 10.49533203 3.14208984 10.49267578 C2.03414063 10.49041992 0.92619141 10.48816406 -0.21533203 10.48583984 C-2.88916016 10.22705078 -2.88916016 10.22705078 -4.88916016 8.22705078 C-5.13916016 5.22705078 -5.13916016 5.22705078 -4.88916016 2.22705078 C-2.88916016 0.22705078 -2.88916016 0.22705078 0 0 Z " fill="#F4F4FF" transform="translate(327.88916015625,41.77294921875)"/>
<path d="M0 0 C2.60444348 -0.05394705 5.20776998 -0.09364469 7.8125 -0.125 C8.55048828 -0.14175781 9.28847656 -0.15851563 10.04882812 -0.17578125 C13.91246426 -0.21074628 15.70903668 -0.19397555 19 2 C19.36328125 4.53125 19.36328125 4.53125 19.3125 7.5 C19.30863281 8.4796875 19.30476563 9.459375 19.30078125 10.46875 C19 13 19 13 17 15 C14.0906442 15.14517744 11.280054 15.18630796 8.375 15.125 C7.57320313 15.11597656 6.77140625 15.10695313 5.9453125 15.09765625 C3.96341477 15.07406223 1.98167019 15.03819065 0 15 C0 10.05 0 5.1 0 0 Z " fill="#0304FF" transform="translate(324,77)"/>
<path d="M0 0 C1.56041016 0.00580078 1.56041016 0.00580078 3.15234375 0.01171875 C5.97383812 0.30333629 7.6598251 0.8593159 10.0625 2.3125 C10.11641993 4.10383978 10.15525571 5.89563899 10.1875 7.6875 C10.21070313 8.68523437 10.23390625 9.68296875 10.2578125 10.7109375 C10.0625 13.3125 10.0625 13.3125 8.0625 15.3125 C4.91015625 15.578125 4.91015625 15.578125 1.125 15.5625 C-0.12152344 15.56765625 -1.36804688 15.5728125 -2.65234375 15.578125 C-5.9375 15.3125 -5.9375 15.3125 -8.9375 13.3125 C-9.3359375 11.03515625 -9.3359375 11.03515625 -9.3125 8.375 C-9.32023437 7.49972656 -9.32796875 6.62445313 -9.3359375 5.72265625 C-8.9375 3.3125 -8.9375 3.3125 -7.78515625 1.515625 C-5.14605087 -0.20286222 -3.12331901 -0.0501893 0 0 Z " fill="#1C1DFF" transform="translate(353.9375,76.6875)"/>
<path d="M0 0 C1.15628906 -0.00515625 2.31257813 -0.0103125 3.50390625 -0.015625 C6.4375 0.25 6.4375 0.25 8.4375 2.25 C8.6328125 5.0703125 8.6328125 5.0703125 8.5625 8.375 C8.54445313 9.47070312 8.52640625 10.56640625 8.5078125 11.6953125 C8.48460937 12.53835937 8.46140625 13.38140625 8.4375 14.25 C5.46708551 15.73520725 2.73985553 15.4205822 -0.5625 15.4375 C-2.4496875 15.45876953 -2.4496875 15.45876953 -4.375 15.48046875 C-7.5625 15.25 -7.5625 15.25 -9.5625 13.25 C-9.86328125 10.71875 -9.86328125 10.71875 -9.875 7.75 C-9.89175781 6.7703125 -9.90851563 5.790625 -9.92578125 4.78125 C-9.80589844 3.9459375 -9.68601563 3.110625 -9.5625 2.25 C-5.97967765 -0.13854824 -4.24856967 -0.01898802 0 0 Z " fill="#0708FF" transform="translate(264.5625,76.75)"/>
<path d="M0 0 C0.99 0 1.98 0 3 0 C4.70916793 2.09587086 6.20257765 4.12985425 7.6875 6.375 C8.10322266 6.97828125 8.51894531 7.5815625 8.94726562 8.203125 C12 12.71455511 12 12.71455511 12 15 C10.0625 14.6875 10.0625 14.6875 8 14 C7.67 13.01 7.34 12.02 7 11 C3.04 11 -0.92 11 -5 11 C-5.33 12.32 -5.66 13.64 -6 15 C-7.32 15 -8.64 15 -10 15 C-8.37996913 11.47454422 -6.30690498 8.40972097 -4.0625 5.25 C-3.37285156 4.26515625 -2.68320312 3.2803125 -1.97265625 2.265625 C-1.32167969 1.51796875 -0.67070312 0.7703125 0 0 Z " fill="#0809FF" transform="translate(310,77)"/>
<path d="M0 0 C4.2841203 1.52452929 5.86470292 4.38803458 8.25 8.125 C8.95640625 9.22070312 9.6628125 10.31640625 10.390625 11.4453125 C10.92171875 12.28835937 11.4528125 13.13140625 12 14 C10.68 14.33 9.36 14.66 8 15 C7.67 13.68 7.34 12.36 7 11 C3.04 11 -0.92 11 -5 11 C-5.66 12.32 -6.32 13.64 -7 15 C-7.99 15 -8.98 15 -10 15 C-8.59601721 10.89889238 -6.62912962 8.01910841 -3.875 4.6875 C-3.15054688 3.80449219 -2.42609375 2.92148438 -1.6796875 2.01171875 C-1.12539062 1.34785156 -0.57109375 0.68398437 0 0 Z " fill="#0707FF" transform="translate(222,77)"/>
<path d="M0 0 C4.2841203 1.52452929 5.86470292 4.38803458 8.25 8.125 C8.95640625 9.22070312 9.6628125 10.31640625 10.390625 11.4453125 C10.92171875 12.28835937 11.4528125 13.13140625 12 14 C11.01 14.33 10.02 14.66 9 15 C8.34 13.68 7.68 12.36 7 11 C3.04 11 -0.92 11 -5 11 C-5.66 12.32 -6.32 13.64 -7 15 C-7.99 15 -8.98 15 -10 15 C-8.59601721 10.89889238 -6.62912962 8.01910841 -3.875 4.6875 C-3.15054687 3.80449219 -2.42609375 2.92148438 -1.6796875 2.01171875 C-1.12539063 1.34785156 -0.57109375 0.68398437 0 0 Z " fill="#0606FF" transform="translate(429,77)"/>
<path d="M0 0 C0 0.99 0 1.98 0 3 C-1.98 3 -3.96 3 -6 3 C-6 3.99 -6 4.98 -6 6 C-4.98679687 5.94779297 -4.98679687 5.94779297 -3.953125 5.89453125 C-3.06109375 5.86746094 -2.1690625 5.84039062 -1.25 5.8125 C0.07257813 5.76029297 0.07257813 5.76029297 1.421875 5.70703125 C4.44671583 6.05076316 5.75583602 7.00227459 8 9 C7.125 13.875 7.125 13.875 6 15 C3.30345146 15.07319621 0.63308542 15.09242537 -2.0625 15.0625 C-3.20041992 15.05573242 -3.20041992 15.05573242 -4.36132812 15.04882812 C-6.24091871 15.0370068 -8.12046899 15.01907078 -10 15 C-10 14.34 -10 13.68 -10 13 C-5.38 13 -0.76 13 4 13 C4 11.68 4 10.36 4 9 C3.24074219 9.02320312 2.48148437 9.04640625 1.69921875 9.0703125 C0.70535156 9.08835937 -0.28851563 9.10640625 -1.3125 9.125 C-2.79169922 9.15980469 -2.79169922 9.15980469 -4.30078125 9.1953125 C-7 9 -7 9 -10 7 C-10.375 4.5 -10.375 4.5 -10 2 C-6.3558226 -0.4294516 -4.28758728 -0.16179575 0 0 Z " fill="#1617FF" transform="translate(404,77)"/>
<path d="M0 0 C4.29 0 8.58 0 13 0 C13.09765625 6.93359375 13.09765625 6.93359375 13 9 C12 10 12 10 9.27734375 10.09765625 C7.62412109 10.08025391 7.62412109 10.08025391 5.9375 10.0625 C4.83277344 10.05347656 3.72804688 10.04445313 2.58984375 10.03515625 C1.30787109 10.01775391 1.30787109 10.01775391 0 10 C0 6.7 0 3.4 0 0 Z " fill="#EDEDFF" transform="translate(327,80)"/>
<path d="M0 0 C1.670625 0.061875 1.670625 0.061875 3.375 0.125 C3.375 1.115 3.375 2.105 3.375 3.125 C1.395 3.125 -0.585 3.125 -2.625 3.125 C-2.625 4.115 -2.625 5.105 -2.625 6.125 C-1.94953125 6.10179688 -1.2740625 6.07859375 -0.578125 6.0546875 C0.75992187 6.02761719 0.75992187 6.02761719 2.125 6 C3.00671875 5.97679688 3.8884375 5.95359375 4.796875 5.9296875 C7.4885858 6.13360498 9.07404974 6.75948279 11.375 8.125 C11.41754356 10.12454746 11.41580783 12.12541636 11.375 14.125 C10.375 15.125 10.375 15.125 6.77734375 15.22265625 C5.28903133 15.2159822 3.80073568 15.20402183 2.3125 15.1875 C1.17458008 15.18073242 1.17458008 15.18073242 0.01367188 15.17382812 C-1.86591871 15.1620068 -3.74546899 15.14407078 -5.625 15.125 C-5.625 14.465 -5.625 13.805 -5.625 13.125 C0.81 12.63 0.81 12.63 7.375 12.125 C7.375 11.465 7.375 10.805 7.375 10.125 C6.60414063 10.07601562 5.83328125 10.02703125 5.0390625 9.9765625 C4.03617187 9.90179688 3.03328125 9.82703125 2 9.75 C0.50339844 9.64558594 0.50339844 9.64558594 -1.0234375 9.5390625 C-3.625 9.125 -3.625 9.125 -5.625 7.125 C-5.875 4.625 -5.875 4.625 -5.625 2.125 C-3.625 0.125 -3.625 0.125 0 0 Z " fill="#0D0EFF" transform="translate(371.625,76.875)"/>
<path d="M0 0 C3.22818641 0.95166189 6.02626432 2.31541948 9.015625 3.859375 C10.08425781 4.40722656 11.15289062 4.95507812 12.25390625 5.51953125 C13.06214844 5.94105469 13.87039062 6.36257812 14.703125 6.796875 C14.703125 7.126875 14.703125 7.456875 14.703125 7.796875 C5.793125 7.796875 -3.116875 7.796875 -12.296875 7.796875 C-4.134375 -0.365625 -4.134375 -0.365625 0 0 Z " fill="#D2E2FF" transform="translate(122.296875,30.203125)"/>
<path d="M0 0 C1.670625 0.061875 1.670625 0.061875 3.375 0.125 C3.375 1.115 3.375 2.105 3.375 3.125 C1.395 3.125 -0.585 3.125 -2.625 3.125 C-2.625 4.115 -2.625 5.105 -2.625 6.125 C-1.61179688 6.07279297 -1.61179688 6.07279297 -0.578125 6.01953125 C0.31390625 5.99246094 1.2059375 5.96539062 2.125 5.9375 C3.44757813 5.88529297 3.44757813 5.88529297 4.796875 5.83203125 C7.82171583 6.17576316 9.13083602 7.12727459 11.375 9.125 C10.5 14 10.5 14 9.375 15.125 C6.84450598 15.19813567 4.34195163 15.21747527 1.8125 15.1875 C0.74612305 15.18073242 0.74612305 15.18073242 -0.34179688 15.17382812 C-2.10290013 15.16200864 -3.86396036 15.14407263 -5.625 15.125 C-5.625 14.465 -5.625 13.805 -5.625 13.125 C0.81 12.63 0.81 12.63 7.375 12.125 C7.375 11.465 7.375 10.805 7.375 10.125 C6.60414063 10.07601562 5.83328125 10.02703125 5.0390625 9.9765625 C4.03617188 9.90179688 3.03328125 9.82703125 2 9.75 C0.50339844 9.64558594 0.50339844 9.64558594 -1.0234375 9.5390625 C-3.625 9.125 -3.625 9.125 -5.625 7.125 C-5.875 4.625 -5.875 4.625 -5.625 2.125 C-3.625 0.125 -3.625 0.125 0 0 Z " fill="#0A0AFF" transform="translate(241.625,76.875)"/>
<path d="M0 0 C1.51400391 0.01740234 1.51400391 0.01740234 3.05859375 0.03515625 C4.07050781 0.04417969 5.08242188 0.05320312 6.125 0.0625 C7.29869141 0.07990234 7.29869141 0.07990234 8.49609375 0.09765625 C8.52298591 1.57672517 8.54243996 3.05593108 8.55859375 4.53515625 C8.57019531 5.35886719 8.58179688 6.18257813 8.59375 7.03125 C8.49609375 9.09765625 8.49609375 9.09765625 7.49609375 10.09765625 C5.83180324 10.19589562 4.16327444 10.22739256 2.49609375 10.22265625 C1.13484375 10.22652344 1.13484375 10.22652344 -0.25390625 10.23046875 C-2.50390625 10.09765625 -2.50390625 10.09765625 -3.50390625 9.09765625 C-3.63671875 7.28515625 -3.63671875 7.28515625 -3.62890625 5.09765625 C-3.63148438 4.37578125 -3.6340625 3.65390625 -3.63671875 2.91015625 C-3.42540627 0.02636242 -2.89803239 0.11302778 0 0 Z " fill="#F2F2FF" transform="translate(261.50390625,79.90234375)"/>
<path d="M0 0 C1.38294718 0.01329757 2.76582404 0.03715018 4.1484375 0.0703125 C4.85484375 0.07933594 5.56125 0.08835937 6.2890625 0.09765625 C8.03399848 0.12123647 9.77876045 0.15710789 11.5234375 0.1953125 C11.5234375 1.1853125 11.5234375 2.1753125 11.5234375 3.1953125 C6.9034375 3.1953125 2.2834375 3.1953125 -2.4765625 3.1953125 C-2.1465625 6.1653125 -1.8165625 9.1353125 -1.4765625 12.1953125 C2.8134375 12.5253125 7.1034375 12.8553125 11.5234375 13.1953125 C11.5234375 13.8553125 11.5234375 14.5153125 11.5234375 15.1953125 C9.06503145 15.22222935 6.60691868 15.24211052 4.1484375 15.2578125 C3.44976562 15.26619141 2.75109375 15.27457031 2.03125 15.28320312 C-3.25 15.30859375 -3.25 15.30859375 -5.4765625 14.1953125 C-5.53045337 12.23727743 -5.56930467 10.27882341 -5.6015625 8.3203125 C-5.62476563 7.22976562 -5.64796875 6.13921875 -5.671875 5.015625 C-5.37032333 0.66121891 -4.27624269 0.24023835 0 0 Z " fill="#0A0BFF" transform="translate(281.4765625,76.8046875)"/>
<path d="M0 0 C1.27230469 0.01804687 2.54460937 0.03609375 3.85546875 0.0546875 C5.31919922 0.08949219 5.31919922 0.08949219 6.8125 0.125 C6.8125 1.115 6.8125 2.105 6.8125 3.125 C2.1925 3.125 -2.4275 3.125 -7.1875 3.125 C-6.8575 6.095 -6.5275 9.065 -6.1875 12.125 C-1.8975 12.455 2.3925 12.785 6.8125 13.125 C6.8125 13.785 6.8125 14.445 6.8125 15.125 C4.35387599 15.17883848 1.8964245 15.21859038 -0.5625 15.25 C-1.61050781 15.27513672 -1.61050781 15.27513672 -2.6796875 15.30078125 C-4.51647486 15.31844267 -6.35351963 15.22803261 -8.1875 15.125 C-10.79923635 12.51326365 -10.4856789 11.25301112 -10.5 7.625 C-10.51675781 6.6453125 -10.53351563 5.665625 -10.55078125 4.65625 C-10.43089844 3.8209375 -10.31101562 2.985625 -10.1875 2.125 C-6.4507157 -0.36618953 -4.44298181 -0.0815226 0 0 Z " fill="#0505FF" transform="translate(458.1875,76.875)"/>
<path d="M0 0 C3.63 0 7.26 0 11 0 C11.09765625 6.93359375 11.09765625 6.93359375 11 9 C10 10 10 10 7.96875 10.1328125 C7.1540625 10.13023438 6.339375 10.12765625 5.5 10.125 C4.6853125 10.12757812 3.870625 10.13015625 3.03125 10.1328125 C1 10 1 10 0 9 C-0.14193337 5.99668982 -0.04236378 3.00782866 0 0 Z " fill="#F6F6FF" transform="translate(349,80)"/>
<path d="M0 0 C0.309375 0.639375 0.61875 1.27875 0.9375 1.9375 C1.8345163 3.93610821 1.8345163 3.93610821 3 5 C4.84891946 5.23363881 6.70488031 5.41303635 8.5625 5.5625 C10.08037109 5.68818359 10.08037109 5.68818359 11.62890625 5.81640625 C12.80259766 5.90728516 12.80259766 5.90728516 14 6 C14 7.32 14 8.64 14 10 C9.71 10 5.42 10 1 10 C0.67 10.66 0.34 11.32 0 12 C-0.19573608 10.56359829 -0.38127816 9.12580496 -0.5625 7.6875 C-0.66691406 6.88699219 -0.77132813 6.08648437 -0.87890625 5.26171875 C-1 3 -1 3 0 0 Z " fill="#E6E6FF" transform="translate(365,80)"/>
<path d="M0 0 C0.99 0 1.98 0 3 0 C3 4.95 3 9.9 3 15 C2.01 15 1.02 15 0 15 C0 10.05 0 5.1 0 0 Z " fill="#0000FF" transform="translate(295,77)"/>
<path d="M0 0 C3.63 0 7.26 0 11 0 C11 0.99 11 1.98 11 3 C7.04 3 3.08 3 -1 3 C-0.67 2.01 -0.34 1.02 0 0 Z " fill="#0D0FFF" transform="translate(454,77)"/>
<path d="M0 0 C0.66 0 1.32 0 2 0 C2.66 1.65 3.32 3.3 4 5 C2.02 5 0.04 5 -2 5 C-1.34 3.35 -0.68 1.7 0 0 Z " fill="#C6C6FF" transform="translate(429,81)"/>
<path d="M0 0 C0.66 0 1.32 0 2 0 C2.66 1.65 3.32 3.3 4 5 C2.02 5 0.04 5 -2 5 C-1.34 3.35 -0.68 1.7 0 0 Z " fill="#C6C6FF" transform="translate(222,81)"/>
<path d="M0 0 C0.66 0 1.32 0 2 0 C2.66 1.65 3.32 3.3 4 5 C2.02 5 0.04 5 -2 5 C-1.34 3.35 -0.68 1.7 0 0 Z " fill="#CACAFF" transform="translate(310,81)"/>
</svg>
