<?xml version="1.0" encoding="UTF-8"?>
<svg version="1.1" xmlns="http://www.w3.org/2000/svg" width="95" height="54">
<path d="M0 0 C-0.33 0.99 -0.66 1.98 -1 3 C0.97841997 3 2.95744294 2.95410393 4.93359375 2.859375 C14.80974978 2.55108919 24.11786081 3.54256672 32 10 C31.61863452 12.42340136 31.30847338 13.7029478 29.51635742 15.42871094 C28.88576416 15.85958008 28.2551709 16.29044922 27.60546875 16.734375 C26.55141846 17.46648193 26.55141846 17.46648193 25.47607422 18.21337891 C24.72084473 18.72046387 23.96561523 19.22754883 23.1875 19.75 C22.41937988 20.2764209 21.65125977 20.8028418 20.85986328 21.34521484 C19.30654847 22.40722457 17.74992198 23.46440758 16.18994141 24.51660156 C14.26185323 25.82262874 12.35220531 27.15000573 10.44921875 28.4921875 C9.43472656 29.19601563 8.42023437 29.89984375 7.375 30.625 C6.49585938 31.23601563 5.61671875 31.84703125 4.7109375 32.4765625 C-1.17791429 35.78585961 -6.90761394 36.34198294 -13.5 36.3125 C-14.22058594 36.32861328 -14.94117188 36.34472656 -15.68359375 36.36132812 C-20.83863553 36.3659891 -24.41560912 35.379907 -29 33 C-30.5 31.25 -30.5 31.25 -31 29 C-30.625 25.25 -30.625 25.25 -30 22 C-31.72780266 22.97022023 -31.72780266 22.97022023 -33 25 C-33.06881101 27.85565675 -32.59528685 30.16093962 -32 33 C-31.34 33.33 -30.68 33.66 -30 34 C-30 34.66 -30 35.32 -30 36 C-25.05 36.66 -20.1 37.32 -15 38 C-16 41 -16 41 -18.25 42.31640625 C-19.1575 42.72761719 -20.065 43.13882813 -21 43.5625 C-24.70967628 45.02364577 -24.70967628 45.02364577 -27 48 C-30.96376954 49.41563198 -34.58275207 49.66519217 -38.421875 47.86328125 C-40.71041372 46.33886871 -42.85823554 44.723354 -45 43 C-46.010625 42.278125 -47.02125 41.55625 -48.0625 40.8125 C-48.701875 40.214375 -49.34125 39.61625 -50 39 C-50 38.01 -50 37.02 -50 36 C-50.66 36 -51.32 36 -52 36 C-52 35.34 -52 34.68 -52 34 C-52.66 34 -53.32 34 -54 34 C-54.61144501 25.96968887 -54.42488788 19.36710524 -49 13 C-47.2265625 11.984375 -47.2265625 11.984375 -45 11 C-44.00226562 10.43023437 -43.00453125 9.86046875 -41.9765625 9.2734375 C-40.87054688 8.64695312 -39.76453125 8.02046875 -38.625 7.375 C-37.52414063 6.74335937 -36.42328125 6.11171875 -35.2890625 5.4609375 C-31.86641632 3.94066473 -29.69443482 3.69864127 -26 4 C-26 3.34 -26 2.68 -26 2 C-17.35975438 -0.513526 -8.91189982 -0.18417244 0 0 Z M-8 5 C-8.99 5.33 -9.98 5.66 -11 6 C-11 6.66 -11 7.32 -11 8 C-9.35 7.67 -7.7 7.34 -6 7 C-6.66 6.34 -7.32 5.68 -8 5 Z M-15 8 C-20.14346502 11.26088959 -25.00441696 14.35996808 -29 19 C-29 19.66 -29 20.32 -29 21 C-28.34 21 -27.68 21 -27 21 C-27 20.34 -27 19.68 -27 19 C-26.46375 18.7525 -25.9275 18.505 -25.375 18.25 C-22.4176018 16.69347463 -19.70275949 14.96564327 -17 13 C-17 12.34 -17 11.68 -17 11 C-15.35 10.67 -13.7 10.34 -12 10 C-12.99 9.34 -13.98 8.68 -15 8 Z " fill="#0805FA" transform="translate(54,0)"/>
<path d="M0 0 C-1.39130435 4.17391304 -1.39130435 4.17391304 -4 6 C-7.6875 6.1875 -7.6875 6.1875 -11 6 C-10.505 7.485 -10.505 7.485 -10 9 C-11.4540625 9.0309375 -11.4540625 9.0309375 -12.9375 9.0625 C-17.64453919 9.67729696 -20.57011962 12.49974088 -24.08203125 15.50390625 C-26 17 -26 17 -28 17 C-28.0825 17.5775 -28.165 18.155 -28.25 18.75 C-29 21 -29 21 -31.125 22.75 C-33.18659013 24.76854756 -33.18659013 24.76854756 -33.109375 26.99609375 C-32.88783563 29.47773047 -32.88783563 29.47773047 -32 33 C-31.34 33.33 -30.68 33.66 -30 34 C-30 34.66 -30 35.32 -30 36 C-25.05 36.66 -20.1 37.32 -15 38 C-16 41 -16 41 -18.25 42.31640625 C-19.1575 42.72761719 -20.065 43.13882813 -21 43.5625 C-24.70967628 45.02364577 -24.70967628 45.02364577 -27 48 C-30.96376954 49.41563198 -34.58275207 49.66519217 -38.421875 47.86328125 C-40.71041372 46.33886871 -42.85823554 44.723354 -45 43 C-46.010625 42.278125 -47.02125 41.55625 -48.0625 40.8125 C-48.701875 40.214375 -49.34125 39.61625 -50 39 C-50 38.01 -50 37.02 -50 36 C-50.66 36 -51.32 36 -52 36 C-52 35.34 -52 34.68 -52 34 C-52.66 34 -53.32 34 -54 34 C-54.61144501 25.96968887 -54.42488788 19.36710524 -49 13 C-47.2265625 11.984375 -47.2265625 11.984375 -45 11 C-44.00226562 10.43023437 -43.00453125 9.86046875 -41.9765625 9.2734375 C-40.87054688 8.64695312 -39.76453125 8.02046875 -38.625 7.375 C-37.52414063 6.74335937 -36.42328125 6.11171875 -35.2890625 5.4609375 C-31.86641632 3.94066473 -29.69443482 3.69864127 -26 4 C-26 3.34 -26 2.68 -26 2 C-17.35975438 -0.513526 -8.91189982 -0.18417244 0 0 Z " fill="#079D07" transform="translate(54,0)"/>
<path d="M0 0 C0.99 0.33 1.98 0.66 3 1 C3 6.28 3 11.56 3 17 C2.01 17.33 1.02 17.66 0 18 C-1.00241557 19.66521494 -2.00219096 21.33202071 -3 23 C-14.99641087 33.3537488 -31.9293349 34.84878589 -47 34 C-46 31 -46 31 -43.734375 29.67578125 C-42.74953125 29.22589844 -41.7646875 28.77601562 -40.75 28.3125 C-27.78554938 22.09265048 -16.38295935 14.3074918 -5.8828125 4.5390625 C-4 3 -4 3 -2 3 C-2 2.34 -2 1.68 -2 1 C-1.34 0.67 -0.68 0.34 0 0 Z " fill="#090AF8" transform="translate(92,20)"/>
<path d="M0 0 C0.99 0 1.98 0 3 0 C2.8125 1.8125 2.8125 1.8125 2 4 C-0.90696599 6.14197494 -2.35521088 7 -6 7 C-6 6.01 -6 5.02 -6 4 C-10.29 4 -14.58 4 -19 4 C-19 3.67 -19 3.34 -19 3 C-13.06 2.67 -7.12 2.34 -1 2 C-0.67 1.34 -0.34 0.68 0 0 Z " fill="#0F0EEF" transform="translate(75,16)"/>
<path d="M0 0 C-1.06838148 3.09830629 -1.94391009 3.96634605 -4.8125 5.6875 C-7.5952389 6.83333367 -10.03531813 7.56401737 -13 8 C-12.67 7.34 -12.34 6.68 -12 6 C-11.34 6 -10.68 6 -10 6 C-9.67 5.01 -9.34 4.02 -9 3 C-6.03848967 0.1442579 -4.06571818 -0.33880985 0 0 Z " fill="#100FF1" transform="translate(72,39)"/>
<path d="M0 0 C1.98 0.495 1.98 0.495 4 1 C4.33 2.32 4.66 3.64 5 5 C3.02 5.66 1.04 6.32 -1 7 C-0.67 4.69 -0.34 2.38 0 0 Z " fill="#120FF0" transform="translate(81,8)"/>
<path d="M0 0 C-0.33 0.66 -0.66 1.32 -1 2 C-1.66 2 -2.32 2 -3 2 C-2.67 2.99 -2.34 3.98 -2 5 C-4.31 4.67 -6.62 4.34 -9 4 C-8.67 3.01 -8.34 2.02 -8 1 C-2.59770115 -1.29885057 -2.59770115 -1.29885057 0 0 Z " fill="#0E9B12" transform="translate(46,4)"/>
<path d="M0 0 C1.32 0 2.64 0 4 0 C3 3 3 3 0 5 C-0.99 5 -1.98 5 -3 5 C-3 4.34 -3 3.68 -3 3 C-2.34 3 -1.68 3 -1 3 C-0.67 2.01 -0.34 1.02 0 0 Z " fill="#100EF0" transform="translate(64,24)"/>
<path d="M0 0 C0.99 0.33 1.98 0.66 3 1 C3.05399736 2.45792884 3.09279177 3.91642712 3.125 5.375 C3.14820312 6.18710937 3.17140625 6.99921875 3.1953125 7.8359375 C3 10 3 10 1 12 C1.06510417 9.98177083 1.13020833 7.96354167 1.1953125 5.9453125 C1.18331689 3.76136355 1.18331689 3.76136355 -1 2 C-0.67 1.34 -0.34 0.68 0 0 Z " fill="#1917EC" transform="translate(92,20)"/>
<path d="M0 0 C0.33 0.99 0.66 1.98 1 3 C0.67 3.66 0.34 4.32 0 5 C-1.65 5 -3.3 5 -5 5 C-5 4.01 -5 3.02 -5 2 C-3.35 1.34 -1.7 0.68 0 0 Z " fill="#0F0EEE" transform="translate(89,38)"/>
<path d="M0 0 C0.66 0.33 1.32 0.66 2 1 C0.515 4.96 0.515 4.96 -1 9 C-1.33 9 -1.66 9 -2 9 C-2 6.36 -2 3.72 -2 1 C-1.34 0.67 -0.68 0.34 0 0 Z " fill="#1AA41C" transform="translate(2,21)"/>
</svg>
